<?xml version="1.0" standalone="no"?>
<!DOCTYPE svg PUBLIC "-//W3C//DTD SVG 20010904//EN"
 "http://www.w3.org/TR/2001/REC-SVG-20010904/DTD/svg10.dtd">
<svg version="1.0" xmlns="http://www.w3.org/2000/svg"
 width="1707.000000pt" height="1707.000000pt" viewBox="0 0 1707.000000 1707.000000"
 preserveAspectRatio="xMidYMid meet">
<metadata>
Created by potrace 1.14, written by Peter Selinger 2001-2017
</metadata>
<g transform="translate(0.000000,1707.000000) scale(0.100000,-0.100000)"
fill="#000000" stroke="none">
<path d="M10540 17028 c-497 -310 -906 -663 -1291 -1113 -84 -98 -224 -276
-287 -365 -50 -71 -216 -320 -246 -370 -15 -25 -31 -52 -36 -60 -111 -175
-314 -586 -405 -820 -20 -52 -41 -106 -47 -120 -61 -145 -227 -707 -243 -825
-2 -11 -10 -51 -18 -90 -13 -59 -35 -177 -52 -285 -2 -14 -6 -38 -9 -55 -3
-16 -10 -77 -16 -135 -6 -58 -13 -116 -15 -130 -2 -14 -7 -63 -10 -110 -4 -47
-8 -101 -10 -120 -2 -19 -6 -84 -10 -145 -3 -60 -7 -111 -8 -112 -1 -1 -36 40
-77 90 -102 125 -282 305 -411 413 -93 77 -270 204 -284 204 -4 0 -20 9 -35
20 -40 28 -315 164 -377 186 -55 19 -75 15 -52 -12 20 -24 32 -47 102 -189
118 -240 173 -386 231 -620 51 -205 59 -280 59 -590 0 -255 -5 -319 -34 -448
-108 -488 -402 -992 -857 -1470 -119 -124 -122 -127 -249 -247 -94 -89 -143
-134 -263 -240 -40 -36 -78 -69 -84 -75 -17 -15 -156 -137 -195 -171 -19 -16
-39 -34 -45 -39 -6 -6 -78 -69 -161 -140 -82 -71 -152 -132 -155 -135 -3 -3
-77 -68 -165 -145 -88 -77 -180 -158 -204 -180 -24 -22 -75 -69 -114 -105
-357 -327 -649 -633 -899 -941 -222 -273 -458 -613 -590 -848 -308 -548 -490
-1025 -597 -1566 -35 -175 -40 -203 -55 -325 -4 -30 -10 -73 -13 -95 -32 -238
-37 -831 -8 -1040 2 -16 7 -54 10 -84 5 -53 31 -234 39 -277 3 -12 7 -38 10
-58 3 -19 10 -55 15 -78 6 -24 12 -54 15 -68 6 -30 10 -48 29 -125 154 -615
401 -1137 790 -1665 143 -194 385 -454 597 -640 47 -41 87 -77 90 -80 36 -40
530 -380 551 -380 15 0 8 28 -32 128 -5 12 -13 32 -18 45 -84 209 -219 734
-257 997 -4 30 -8 57 -9 60 -1 5 -16 135 -21 185 -22 228 -22 800 0 920 2 11
7 52 11 90 4 39 8 77 10 85 1 8 6 35 10 60 22 136 56 295 91 430 36 137 129
427 158 490 8 19 34 80 57 135 41 101 157 338 206 424 125 218 274 442 401
600 72 90 204 248 247 295 8 9 137 154 180 202 15 18 129 139 224 240 47 50
149 158 227 240 78 82 152 161 165 175 13 15 73 78 132 142 59 63 117 125 128
138 11 13 39 44 62 69 24 25 80 88 126 140 46 52 91 102 100 111 9 9 25 27 36
40 157 186 255 305 379 461 81 104 152 186 156 183 4 -3 11 -24 14 -48 60
-399 147 -703 313 -1090 10 -23 57 -121 105 -217 237 -479 543 -903 947 -1315
131 -133 311 -306 452 -435 250 -229 218 -200 299 -270 56 -48 109 -96 186
-165 12 -11 50 -45 85 -75 281 -244 534 -507 732 -760 110 -140 238 -403 287
-586 21 -81 23 -90 39 -204 9 -62 8 -397 -2 -450 -2 -14 -8 -43 -11 -65 -39
-221 -97 -396 -202 -609 -24 -49 -44 -91 -44 -93 0 -13 223 50 305 87 11 5 49
21 85 36 142 61 308 161 435 262 201 161 427 421 543 623 11 19 36 63 56 97
20 35 36 70 36 78 0 8 5 14 10 14 6 0 10 7 10 15 0 9 6 26 14 38 18 29 88 218
121 329 25 85 29 101 41 162 2 16 6 32 8 35 2 3 7 24 10 46 3 22 10 63 16 90
23 126 34 291 34 520 0 169 -9 381 -18 432 -2 10 -7 43 -11 73 -5 43 -28 161
-50 255 -10 44 -46 177 -76 280 -49 166 -135 401 -195 533 -13 29 -24 55 -24
58 0 11 -181 366 -235 459 -93 163 -252 416 -349 555 -27 39 -47 73 -44 75 4
4 277 -266 390 -386 24 -25 84 -88 133 -140 149 -157 337 -362 406 -444 19
-22 36 -42 40 -45 3 -3 29 -34 58 -70 29 -36 60 -74 69 -85 163 -198 421 -583
566 -843 136 -243 265 -544 335 -782 17 -58 35 -118 40 -135 15 -48 59 -273
71 -358 35 -263 33 -601 -5 -837 -20 -122 -22 -134 -36 -200 -6 -30 -15 -75
-20 -100 -20 -99 -88 -313 -149 -465 -118 -298 -305 -632 -492 -878 -33 -43
-58 -81 -55 -83 15 -15 362 152 537 260 253 154 415 282 640 506 156 155 228
237 347 395 205 272 366 565 513 935 62 157 159 504 185 665 2 17 9 55 15 85
19 96 37 252 45 378 6 89 6 610 0 692 -14 217 -51 496 -89 675 -23 106 -57
257 -66 285 -6 19 -12 46 -15 60 -9 52 -109 361 -170 531 -165 452 -398 934
-684 1411 -151 253 -377 585 -615 903 -109 146 -368 480 -416 537 -11 12 -56
68 -101 123 -45 55 -91 111 -103 125 -11 14 -64 77 -116 140 -52 63 -105 126
-116 140 -41 47 -216 255 -287 340 -39 47 -74 87 -77 90 -3 3 -39 46 -80 95
-41 50 -77 92 -80 95 -5 4 -87 101 -152 178 -164 197 -227 273 -293 357 -44
55 -82 102 -86 105 -9 8 -221 289 -292 387 -131 181 -300 444 -389 603 -14 25
-35 63 -48 85 -92 162 -256 519 -334 726 -117 312 -240 752 -281 999 -3 19
-12 71 -20 115 -8 44 -17 100 -20 125 -4 24 -8 47 -10 50 -2 3 -6 37 -10 75
-3 39 -8 84 -10 100 -27 215 -27 994 0 1205 2 19 7 58 10 85 18 149 87 546
111 635 2 8 9 38 15 65 78 348 245 836 394 1150 13 28 41 88 63 135 66 142
162 344 172 362 20 35 9 37 -40 6z"/>
</g>
</svg>
